<?xml version="1.0" encoding="UTF-8"?>
<svg id="Icon" data-name="Icon" xmlns="http://www.w3.org/2000/svg" viewBox="0 0 128 128">
  <defs>
    <style>
      .cls-1 {
        fill: #26aca9;
      }

      .cls-2 {
        fill: #1c2039;
      }

      @media (prefers-color-scheme: dark) {
        .cls-2 {
          fill: #fff;
        }
      }
    </style>
  </defs>
  <path class="cls-2" d="M44.5,80.95c1.34-17.18,15.22-31.05,32.4-32.39,7.47-.58,14.49,1.17,20.43,4.59,15.26-24.91,2.18-44.28-23.75-44.28H17.94c-2.77,0-5.01,2.24-5.01,5.01v96.5c0,2.46,1.79,4.57,4.22,4.95,11.47,1.78,22.43-.83,34.71-9.83-5.22-6.68-8.09-15.27-7.37-24.55Z"/>
  <path class="cls-1" d="M97.33,53.15c-.69,1.12-1.43,2.26-2.24,3.41-17.05,24.24-30.82,39.86-43.23,48.95,6.47,8.28,16.54,13.62,27.86,13.62,19.52,0,35.34-15.82,35.34-35.34,0-13.11-7.14-24.54-17.74-30.64Z"/>
</svg>
